# MagicaVoxel @ Ephtracy

# group
o 

# material
mtllib Ice.mtl
usemtl palette

# normals
vn -1 0 0
vn 1 0 0
vn 0 0 1
vn 0 0 -1
vn 0 -1 0
vn 0 1 0

# texcoords
vt 0.587891 0.5
vt 0.611328 0.5
vt 0.634766 0.5
vt 0.728516 0.5
vt 0.751953 0.5
vt 0.833984 0.5

# verts
v -0.2 0.1 0
v -0.2 0.1 -0.1
v -0.2 0.2 0.1
v -0.2 0.2 0
v -0.2 0.2 -0.1
v -0.2 0.2 -0.2
v -0.2 0.3 0.1
v -0.2 0.3 -0.2
v -0.2 0.4 0.1
v -0.2 0.4 0
v -0.2 0.4 -0.1
v -0.2 0.4 -0.2
v -0.2 0.5 0
v -0.2 0.5 -0.1
v -0.1 0 0
v -0.1 0 -0.1
v -0.1 0.1 0.1
v -0.1 0.1 0
v -0.1 0.1 -0.1
v -0.1 0.1 -0.2
v -0.1 0.2 0.2
v -0.1 0.2 0.1
v -0.1 0.2 0
v -0.1 0.2 -0.1
v -0.1 0.2 -0.2
v -0.1 0.2 -0.3
v -0.1 0.3 0.2
v -0.1 0.3 0.1
v -0.1 0.3 -0.2
v -0.1 0.3 -0.3
v -0.1 0.4 0.2
v -0.1 0.4 0.1
v -0.1 0.4 0
v -0.1 0.4 -0.1
v -0.1 0.4 -0.2
v -0.1 0.4 -0.3
v -0.1 0.5 0.1
v -0.1 0.5 0
v -0.1 0.5 -0.1
v -0.1 0.5 -0.2
v -0.1 0.6 0
v -0.1 0.6 -0.1
v 0 0 0.1
v 0 0 0
v 0 0 -0.1
v 0 0 -0.2
v 0 0.1 0.2
v 0 0.1 0.1
v 0 0.1 0
v 0 0.1 -0.1
v 0 0.1 -0.2
v 0 0.1 -0.3
v 0 0.2 0.2
v 0 0.2 0.1
v 0 0.2 -0.2
v 0 0.2 -0.3
v 0 0.4 0.2
v 0 0.4 0.1
v 0 0.4 -0.2
v 0 0.4 -0.3
v 0 0.5 0.2
v 0 0.5 0.1
v 0 0.5 0
v 0 0.5 -0.1
v 0 0.5 -0.2
v 0 0.5 -0.3
v 0 0.6 0.1
v 0 0.6 0
v 0 0.6 -0.1
v 0 0.6 -0.2
v 0.1 0 0.1
v 0.1 0 0
v 0.1 0 -0.1
v 0.1 0 -0.2
v 0.1 0.1 0.2
v 0.1 0.1 0.1
v 0.1 0.1 0
v 0.1 0.1 -0.1
v 0.1 0.1 -0.2
v 0.1 0.1 -0.3
v 0.1 0.2 0.2
v 0.1 0.2 0.1
v 0.1 0.2 -0.2
v 0.1 0.2 -0.3
v 0.1 0.4 0.2
v 0.1 0.4 0.1
v 0.1 0.4 -0.2
v 0.1 0.4 -0.3
v 0.1 0.5 0.2
v 0.1 0.5 0.1
v 0.1 0.5 0
v 0.1 0.5 -0.1
v 0.1 0.5 -0.2
v 0.1 0.5 -0.3
v 0.1 0.6 0.1
v 0.1 0.6 0
v 0.1 0.6 -0.1
v 0.1 0.6 -0.2
v 0.2 0 0
v 0.2 0 -0.1
v 0.2 0.1 0.1
v 0.2 0.1 0
v 0.2 0.1 -0.1
v 0.2 0.1 -0.2
v 0.2 0.2 0.2
v 0.2 0.2 0.1
v 0.2 0.2 0
v 0.2 0.2 -0.1
v 0.2 0.2 -0.2
v 0.2 0.2 -0.3
v 0.2 0.3 0.2
v 0.2 0.3 0.1
v 0.2 0.3 -0.2
v 0.2 0.3 -0.3
v 0.2 0.4 0.2
v 0.2 0.4 0.1
v 0.2 0.4 0
v 0.2 0.4 -0.1
v 0.2 0.4 -0.2
v 0.2 0.4 -0.3
v 0.2 0.5 0.1
v 0.2 0.5 0
v 0.2 0.5 -0.1
v 0.2 0.5 -0.2
v 0.2 0.6 0
v 0.2 0.6 -0.1
v 0.3 0.1 0
v 0.3 0.1 -0.1
v 0.3 0.2 0.1
v 0.3 0.2 0
v 0.3 0.2 -0.1
v 0.3 0.2 -0.2
v 0.3 0.3 0.1
v 0.3 0.3 0
v 0.3 0.3 -0.2
v 0.3 0.4 0.1
v 0.3 0.4 0
v 0.3 0.4 -0.1
v 0.3 0.4 -0.2
v 0.3 0.5 0
v 0.3 0.5 -0.1
v -0.1 0.2 0.2
v -0.1 0.3 0.2
v -0.1 0.4 0.2
v 0 0.1 0.2
v 0 0.2 0.2
v 0 0.4 0.2
v 0 0.5 0.2
v 0.1 0.1 0.2
v 0.1 0.2 0.2
v 0.1 0.4 0.2
v 0.1 0.5 0.2
v 0.2 0.2 0.2
v 0.2 0.3 0.2
v 0.2 0.4 0.2
v -0.2 0.2 0.1
v -0.2 0.3 0.1
v -0.2 0.4 0.1
v -0.1 0.1 0.1
v -0.1 0.2 0.1
v -0.1 0.3 0.1
v -0.1 0.4 0.1
v -0.1 0.5 0.1
v 0 0 0.1
v 0 0.1 0.1
v 0 0.2 0.1
v 0 0.4 0.1
v 0 0.5 0.1
v 0 0.6 0.1
v 0.1 0 0.1
v 0.1 0.1 0.1
v 0.1 0.2 0.1
v 0.1 0.4 0.1
v 0.1 0.5 0.1
v 0.1 0.6 0.1
v 0.2 0.1 0.1
v 0.2 0.2 0.1
v 0.2 0.3 0.1
v 0.2 0.4 0.1
v 0.2 0.5 0.1
v 0.3 0.2 0.1
v 0.3 0.3 0.1
v 0.3 0.4 0.1
v -0.2 0.1 0
v -0.2 0.2 0
v -0.2 0.4 0
v -0.2 0.5 0
v -0.1 0 0
v -0.1 0.1 0
v -0.1 0.2 0
v -0.1 0.4 0
v -0.1 0.5 0
v -0.1 0.6 0
v 0 0 0
v 0 0.1 0
v 0 0.5 0
v 0 0.6 0
v 0.1 0 0
v 0.1 0.1 0
v 0.1 0.5 0
v 0.1 0.6 0
v 0.2 0 0
v 0.2 0.1 0
v 0.2 0.2 0
v 0.2 0.4 0
v 0.2 0.5 0
v 0.2 0.6 0
v 0.3 0.1 0
v 0.3 0.2 0
v 0.3 0.4 0
v 0.3 0.5 0
v -0.2 0.1 -0.1
v -0.2 0.2 -0.1
v -0.2 0.4 -0.1
v -0.2 0.5 -0.1
v -0.1 0 -0.1
v -0.1 0.1 -0.1
v -0.1 0.2 -0.1
v -0.1 0.4 -0.1
v -0.1 0.5 -0.1
v -0.1 0.6 -0.1
v 0 0 -0.1
v 0 0.1 -0.1
v 0 0.5 -0.1
v 0 0.6 -0.1
v 0.1 0 -0.1
v 0.1 0.1 -0.1
v 0.1 0.5 -0.1
v 0.1 0.6 -0.1
v 0.2 0 -0.1
v 0.2 0.1 -0.1
v 0.2 0.2 -0.1
v 0.2 0.4 -0.1
v 0.2 0.5 -0.1
v 0.2 0.6 -0.1
v 0.3 0.1 -0.1
v 0.3 0.2 -0.1
v 0.3 0.4 -0.1
v 0.3 0.5 -0.1
v -0.2 0.2 -0.2
v -0.2 0.3 -0.2
v -0.2 0.4 -0.2
v -0.1 0.1 -0.2
v -0.1 0.2 -0.2
v -0.1 0.3 -0.2
v -0.1 0.4 -0.2
v -0.1 0.5 -0.2
v 0 0 -0.2
v 0 0.1 -0.2
v 0 0.2 -0.2
v 0 0.4 -0.2
v 0 0.5 -0.2
v 0 0.6 -0.2
v 0.1 0 -0.2
v 0.1 0.1 -0.2
v 0.1 0.2 -0.2
v 0.1 0.4 -0.2
v 0.1 0.5 -0.2
v 0.1 0.6 -0.2
v 0.2 0.1 -0.2
v 0.2 0.2 -0.2
v 0.2 0.3 -0.2
v 0.2 0.4 -0.2
v 0.2 0.5 -0.2
v 0.3 0.2 -0.2
v 0.3 0.3 -0.2
v 0.3 0.4 -0.2
v -0.1 0.2 -0.3
v -0.1 0.3 -0.3
v -0.1 0.4 -0.3
v 0 0.1 -0.3
v 0 0.2 -0.3
v 0 0.3 -0.3
v 0 0.4 -0.3
v 0 0.5 -0.3
v 0.1 0.1 -0.3
v 0.1 0.2 -0.3
v 0.1 0.4 -0.3
v 0.1 0.5 -0.3
v 0.2 0.2 -0.3
v 0.2 0.3 -0.3
v 0.2 0.4 -0.3
v 0 0 0.1
v 0.1 0 0.1
v -0.1 0 0
v 0 0 0
v 0.1 0 0
v 0.2 0 0
v -0.1 0 -0.1
v 0 0 -0.1
v 0.1 0 -0.1
v 0.2 0 -0.1
v 0 0 -0.2
v 0.1 0 -0.2
v 0 0.1 0.2
v 0.1 0.1 0.2
v -0.1 0.1 0.1
v 0 0.1 0.1
v 0.1 0.1 0.1
v 0.2 0.1 0.1
v -0.2 0.1 0
v -0.1 0.1 0
v 0 0.1 0
v 0.1 0.1 0
v 0.2 0.1 0
v 0.3 0.1 0
v -0.2 0.1 -0.1
v -0.1 0.1 -0.1
v 0 0.1 -0.1
v 0.1 0.1 -0.1
v 0.2 0.1 -0.1
v 0.3 0.1 -0.1
v -0.1 0.1 -0.2
v 0 0.1 -0.2
v 0.1 0.1 -0.2
v 0.2 0.1 -0.2
v 0 0.1 -0.3
v 0.1 0.1 -0.3
v -0.1 0.2 0.2
v 0 0.2 0.2
v 0.1 0.2 0.2
v 0.2 0.2 0.2
v -0.2 0.2 0.1
v -0.1 0.2 0.1
v 0 0.2 0.1
v 0.1 0.2 0.1
v 0.2 0.2 0.1
v 0.3 0.2 0.1
v -0.2 0.2 0
v -0.1 0.2 0
v 0.2 0.2 0
v 0.3 0.2 0
v -0.2 0.2 -0.1
v -0.1 0.2 -0.1
v 0.2 0.2 -0.1
v 0.3 0.2 -0.1
v -0.2 0.2 -0.2
v -0.1 0.2 -0.2
v 0 0.2 -0.2
v 0.1 0.2 -0.2
v 0.2 0.2 -0.2
v 0.3 0.2 -0.2
v -0.1 0.2 -0.3
v 0 0.2 -0.3
v 0.1 0.2 -0.3
v 0.2 0.2 -0.3
v -0.1 0.4 0.2
v 0 0.4 0.2
v 0.1 0.4 0.2
v 0.2 0.4 0.2
v -0.2 0.4 0.1
v -0.1 0.4 0.1
v 0 0.4 0.1
v 0.1 0.4 0.1
v 0.2 0.4 0.1
v 0.3 0.4 0.1
v -0.2 0.4 0
v -0.1 0.4 0
v 0.2 0.4 0
v 0.3 0.4 0
v -0.2 0.4 -0.1
v -0.1 0.4 -0.1
v 0.2 0.4 -0.1
v 0.3 0.4 -0.1
v -0.2 0.4 -0.2
v -0.1 0.4 -0.2
v 0 0.4 -0.2
v 0.1 0.4 -0.2
v 0.2 0.4 -0.2
v 0.3 0.4 -0.2
v -0.1 0.4 -0.3
v 0 0.4 -0.3
v 0.1 0.4 -0.3
v 0.2 0.4 -0.3
v 0 0.5 0.2
v 0.1 0.5 0.2
v -0.1 0.5 0.1
v 0 0.5 0.1
v 0.1 0.5 0.1
v 0.2 0.5 0.1
v -0.2 0.5 0
v -0.1 0.5 0
v 0 0.5 0
v 0.1 0.5 0
v 0.2 0.5 0
v 0.3 0.5 0
v -0.2 0.5 -0.1
v -0.1 0.5 -0.1
v 0 0.5 -0.1
v 0.1 0.5 -0.1
v 0.2 0.5 -0.1
v 0.3 0.5 -0.1
v -0.1 0.5 -0.2
v 0 0.5 -0.2
v 0.1 0.5 -0.2
v 0.2 0.5 -0.2
v 0 0.5 -0.3
v 0.1 0.5 -0.3
v 0 0.6 0.1
v 0.1 0.6 0.1
v -0.1 0.6 0
v 0 0.6 0
v 0.1 0.6 0
v 0.2 0.6 0
v -0.1 0.6 -0.1
v 0 0.6 -0.1
v 0.1 0.6 -0.1
v 0.2 0.6 -0.1
v 0 0.6 -0.2
v 0.1 0.6 -0.2

# faces
f 4/4/1 2/4/1 1/4/1
f 5/4/1 2/4/1 4/4/1
f 7/1/1 4/1/1 3/1/1
f 7/1/1 6/1/1 5/1/1
f 7/1/1 5/1/1 4/1/1
f 8/1/1 6/1/1 7/1/1
f 9/2/1 8/2/1 7/2/1
f 10/2/1 8/2/1 9/2/1
f 11/2/1 8/2/1 10/2/1
f 12/2/1 8/2/1 11/2/1
f 13/3/1 11/3/1 10/3/1
f 14/3/1 11/3/1 13/3/1
f 18/4/1 16/4/1 15/4/1
f 19/4/1 16/4/1 18/4/1
f 22/4/1 18/4/1 17/4/1
f 23/4/1 18/4/1 22/4/1
f 24/4/1 20/4/1 19/4/1
f 25/4/1 20/4/1 24/4/1
f 27/1/1 22/1/1 21/1/1
f 28/1/1 22/1/1 27/1/1
f 29/1/1 26/1/1 25/1/1
f 30/1/1 26/1/1 29/1/1
f 31/2/1 28/2/1 27/2/1
f 32/2/1 28/2/1 31/2/1
f 35/2/1 30/2/1 29/2/1
f 36/2/1 30/2/1 35/2/1
f 37/3/1 33/3/1 32/3/1
f 38/3/1 33/3/1 37/3/1
f 39/3/1 35/3/1 34/3/1
f 40/3/1 35/3/1 39/3/1
f 41/6/1 39/6/1 38/6/1
f 42/6/1 39/6/1 41/6/1
f 48/4/1 44/4/1 43/4/1
f 49/4/1 44/4/1 48/4/1
f 50/4/1 46/4/1 45/4/1
f 51/4/1 46/4/1 50/4/1
f 53/4/1 48/4/1 47/4/1
f 54/4/1 48/4/1 53/4/1
f 55/4/1 52/4/1 51/4/1
f 56/4/1 52/4/1 55/4/1
f 61/3/1 58/3/1 57/3/1
f 62/3/1 58/3/1 61/3/1
f 65/3/1 60/3/1 59/3/1
f 66/3/1 60/3/1 65/3/1
f 67/6/1 63/6/1 62/6/1
f 68/6/1 63/6/1 67/6/1
f 69/6/1 65/6/1 64/6/1
f 70/6/1 65/6/1 69/6/1
f 71/4/2 72/4/2 76/4/2
f 76/4/2 72/4/2 77/4/2
f 73/4/2 74/4/2 78/4/2
f 78/4/2 74/4/2 79/4/2
f 75/4/2 76/4/2 81/4/2
f 81/4/2 76/4/2 82/4/2
f 79/4/2 80/4/2 83/4/2
f 83/4/2 80/4/2 84/4/2
f 85/3/2 86/3/2 89/3/2
f 89/3/2 86/3/2 90/3/2
f 87/3/2 88/3/2 93/3/2
f 93/3/2 88/3/2 94/3/2
f 90/6/2 91/6/2 95/6/2
f 95/6/2 91/6/2 96/6/2
f 92/6/2 93/6/2 97/6/2
f 97/6/2 93/6/2 98/6/2
f 99/4/2 100/4/2 102/4/2
f 102/4/2 100/4/2 103/4/2
f 101/4/2 102/4/2 106/4/2
f 106/4/2 102/4/2 107/4/2
f 103/4/2 104/4/2 108/4/2
f 108/4/2 104/4/2 109/4/2
f 105/1/2 106/1/2 111/1/2
f 111/1/2 106/1/2 112/1/2
f 109/1/2 110/1/2 113/1/2
f 113/1/2 110/1/2 114/1/2
f 111/2/2 112/2/2 115/2/2
f 115/2/2 112/2/2 116/2/2
f 113/5/2 114/5/2 119/5/2
f 119/5/2 114/5/2 120/5/2
f 116/3/2 117/3/2 121/3/2
f 121/3/2 117/3/2 122/3/2
f 118/3/2 119/3/2 123/3/2
f 123/3/2 119/3/2 124/3/2
f 122/6/2 123/6/2 125/6/2
f 125/6/2 123/6/2 126/6/2
f 127/4/2 128/4/2 130/4/2
f 130/4/2 128/4/2 131/4/2
f 129/1/2 130/1/2 133/1/2
f 131/1/2 132/1/2 133/1/2
f 130/1/2 131/1/2 133/1/2
f 133/1/2 132/1/2 134/1/2
f 134/1/2 132/1/2 135/1/2
f 133/2/2 134/2/2 136/2/2
f 134/5/2 135/5/2 137/5/2
f 136/2/2 134/2/2 137/2/2
f 137/5/2 135/5/2 138/5/2
f 138/5/2 135/5/2 139/5/2
f 137/3/2 138/3/2 140/3/2
f 140/3/2 138/3/2 141/3/2
f 146/1/3 143/1/3 142/1/3
f 147/2/3 144/2/3 143/2/3
f 149/4/3 146/4/3 145/4/3
f 150/1/3 143/1/3 146/1/3
f 150/4/3 146/4/3 149/4/3
f 151/3/3 148/3/3 147/3/3
f 151/2/3 147/2/3 143/2/3
f 152/3/3 148/3/3 151/3/3
f 153/1/3 143/1/3 150/1/3
f 154/2/3 151/2/3 143/2/3
f 154/1/3 143/1/3 153/1/3
f 155/2/3 151/2/3 154/2/3
f 160/1/3 157/1/3 156/1/3
f 161/2/3 158/2/3 157/2/3
f 161/1/3 157/1/3 160/1/3
f 162/2/3 158/2/3 161/2/3
f 165/4/3 160/4/3 159/4/3
f 166/4/3 160/4/3 165/4/3
f 167/3/3 163/3/3 162/3/3
f 168/3/3 163/3/3 167/3/3
f 170/4/3 165/4/3 164/4/3
f 171/4/3 165/4/3 170/4/3
f 174/6/3 169/6/3 168/6/3
f 175/6/3 169/6/3 174/6/3
f 176/4/3 172/4/3 171/4/3
f 177/4/3 172/4/3 176/4/3
f 179/3/3 174/3/3 173/3/3
f 180/3/3 174/3/3 179/3/3
f 181/1/3 178/1/3 177/1/3
f 182/2/3 179/2/3 178/2/3
f 182/1/3 178/1/3 181/1/3
f 183/2/3 179/2/3 182/2/3
f 189/4/3 185/4/3 184/4/3
f 190/4/3 185/4/3 189/4/3
f 191/3/3 187/3/3 186/3/3
f 192/3/3 187/3/3 191/3/3
f 194/4/3 189/4/3 188/4/3
f 195/4/3 189/4/3 194/4/3
f 196/6/3 193/6/3 192/6/3
f 197/6/3 193/6/3 196/6/3
f 202/4/3 199/4/3 198/4/3
f 203/4/3 199/4/3 202/4/3
f 206/6/3 201/6/3 200/6/3
f 207/6/3 201/6/3 206/6/3
f 208/4/3 204/4/3 203/4/3
f 209/4/3 204/4/3 208/4/3
f 210/3/3 206/3/3 205/3/3
f 211/3/3 206/3/3 210/3/3
f 212/4/4 213/4/4 217/4/4
f 217/4/4 213/4/4 218/4/4
f 214/3/4 215/3/4 219/3/4
f 219/3/4 215/3/4 220/3/4
f 216/4/4 217/4/4 222/4/4
f 222/4/4 217/4/4 223/4/4
f 220/6/4 221/6/4 224/6/4
f 224/6/4 221/6/4 225/6/4
f 226/4/4 227/4/4 230/4/4
f 230/4/4 227/4/4 231/4/4
f 228/6/4 229/6/4 234/6/4
f 234/6/4 229/6/4 235/6/4
f 231/4/4 232/4/4 236/4/4
f 236/4/4 232/4/4 237/4/4
f 233/3/4 234/3/4 238/3/4
f 238/3/4 234/3/4 239/3/4
f 240/1/4 241/1/4 244/1/4
f 241/2/4 242/2/4 245/2/4
f 244/1/4 241/1/4 245/1/4
f 245/2/4 242/2/4 246/2/4
f 243/4/4 244/4/4 249/4/4
f 249/4/4 244/4/4 250/4/4
f 246/3/4 247/3/4 251/3/4
f 251/3/4 247/3/4 252/3/4
f 248/4/4 249/4/4 254/4/4
f 254/4/4 249/4/4 255/4/4
f 252/6/4 253/6/4 258/6/4
f 258/6/4 253/6/4 259/6/4
f 255/4/4 256/4/4 260/4/4
f 260/4/4 256/4/4 261/4/4
f 257/3/4 258/3/4 263/3/4
f 263/3/4 258/3/4 264/3/4
f 261/1/4 262/1/4 265/1/4
f 262/5/4 263/5/4 266/5/4
f 265/1/4 262/1/4 266/1/4
f 266/5/4 263/5/4 267/5/4
f 268/1/4 269/1/4 272/1/4
f 269/2/4 270/2/4 273/2/4
f 272/1/4 269/1/4 273/1/4
f 273/2/4 270/2/4 274/2/4
f 271/4/4 272/4/4 276/4/4
f 272/1/4 273/1/4 277/1/4
f 276/4/4 272/4/4 277/4/4
f 274/3/4 275/3/4 278/3/4
f 273/5/4 274/5/4 278/5/4
f 278/3/4 275/3/4 279/3/4
f 277/1/4 273/1/4 280/1/4
f 273/5/4 278/5/4 281/5/4
f 280/1/4 273/1/4 281/1/4
f 281/5/4 278/5/4 282/5/4
f 286/4/5 284/4/5 283/4/5
f 287/4/5 284/4/5 286/4/5
f 289/4/5 286/4/5 285/4/5
f 290/5/5 287/5/5 286/5/5
f 290/4/5 286/4/5 289/4/5
f 291/4/5 288/4/5 287/4/5
f 291/5/5 287/5/5 290/5/5
f 292/4/5 288/4/5 291/4/5
f 293/4/5 291/4/5 290/4/5
f 294/4/5 291/4/5 293/4/5
f 298/4/5 296/4/5 295/4/5
f 299/4/5 296/4/5 298/4/5
f 302/4/5 298/4/5 297/4/5
f 303/4/5 298/4/5 302/4/5
f 304/4/5 300/4/5 299/4/5
f 305/4/5 300/4/5 304/4/5
f 307/4/5 302/4/5 301/4/5
f 308/4/5 302/4/5 307/4/5
f 311/4/5 306/4/5 305/4/5
f 312/4/5 306/4/5 311/4/5
f 313/4/5 309/4/5 308/4/5
f 314/4/5 309/4/5 313/4/5
f 315/4/5 311/4/5 310/4/5
f 316/4/5 311/4/5 315/4/5
f 317/4/5 315/4/5 314/4/5
f 318/4/5 315/4/5 317/4/5
f 324/1/5 320/1/5 319/1/5
f 325/1/5 320/1/5 324/1/5
f 326/1/5 322/1/5 321/1/5
f 327/1/5 322/1/5 326/1/5
f 329/1/5 324/1/5 323/1/5
f 330/1/5 324/1/5 329/1/5
f 331/1/5 328/1/5 327/1/5
f 332/1/5 328/1/5 331/1/5
f 337/1/5 334/1/5 333/1/5
f 338/1/5 334/1/5 337/1/5
f 341/1/5 336/1/5 335/1/5
f 342/1/5 336/1/5 341/1/5
f 343/1/5 339/1/5 338/1/5
f 344/1/5 339/1/5 343/1/5
f 345/1/5 341/1/5 340/1/5
f 346/1/5 341/1/5 345/1/5
f 347/2/6 348/2/6 352/2/6
f 352/2/6 348/2/6 353/2/6
f 349/2/6 350/2/6 354/2/6
f 354/2/6 350/2/6 355/2/6
f 351/2/6 352/2/6 357/2/6
f 357/2/6 352/2/6 358/2/6
f 355/2/6 356/2/6 359/2/6
f 359/2/6 356/2/6 360/2/6
f 361/2/6 362/2/6 365/2/6
f 365/2/6 362/2/6 366/2/6
f 363/5/6 364/5/6 369/5/6
f 369/5/6 364/5/6 370/5/6
f 366/2/6 367/2/6 371/2/6
f 371/2/6 367/2/6 372/2/6
f 368/5/6 369/5/6 373/5/6
f 373/5/6 369/5/6 374/5/6
f 375/3/6 376/3/6 378/3/6
f 378/3/6 376/3/6 379/3/6
f 377/3/6 378/3/6 382/3/6
f 382/3/6 378/3/6 383/3/6
f 379/3/6 380/3/6 384/3/6
f 384/3/6 380/3/6 385/3/6
f 381/3/6 382/3/6 387/3/6
f 387/3/6 382/3/6 388/3/6
f 385/3/6 386/3/6 391/3/6
f 391/3/6 386/3/6 392/3/6
f 388/3/6 389/3/6 393/3/6
f 393/3/6 389/3/6 394/3/6
f 390/3/6 391/3/6 395/3/6
f 395/3/6 391/3/6 396/3/6
f 394/3/6 395/3/6 397/3/6
f 397/3/6 395/3/6 398/3/6
f 399/6/6 400/6/6 402/6/6
f 402/6/6 400/6/6 403/6/6
f 401/6/6 402/6/6 405/6/6
f 403/6/6 404/6/6 405/6/6
f 402/6/6 403/6/6 405/6/6
f 405/6/6 404/6/6 406/6/6
f 406/6/6 404/6/6 407/6/6
f 407/6/6 404/6/6 408/6/6
f 406/6/6 407/6/6 409/6/6
f 409/6/6 407/6/6 410/6/6
